<svg width="20" height="20" viewBox="0 0 20 20" fill="none" xmlns="http://www.w3.org/2000/svg">
<path d="M9.99982 7.49995V10.8333M9.99982 14.1666H10.0081M8.84591 3.24305L1.99184 15.0819C1.61167 15.7386 1.42159 16.0669 1.44968 16.3364C1.47419 16.5714 1.59733 16.785 1.78846 16.924C2.00759 17.0833 2.38698 17.0833 3.14575 17.0833H16.8539C17.6127 17.0833 17.992 17.0833 18.2112 16.924C18.4023 16.785 18.5254 16.5714 18.55 16.3364C18.578 16.0669 18.388 15.7386 18.0078 15.0819L11.1537 3.24305C10.7749 2.58875 10.5855 2.26159 10.3384 2.15172C10.1229 2.05587 9.87678 2.05587 9.66123 2.15172C9.41413 2.26159 9.22472 2.58875 8.84591 3.24305Z" stroke="#DC6803" stroke-width="2" stroke-linecap="round" stroke-linejoin="round"/>
</svg>
