<svg width="28" height="28" viewBox="0 0 28 28" fill="none" xmlns="http://www.w3.org/2000/svg">
<path d="M5.83333 10.4999V19.8332M11.0833 10.4999V19.8332M16.9167 10.4999V19.8332M22.1667 10.4999V19.8332M3.5 21.6999L3.5 22.6332C3.5 23.2866 3.5 23.6133 3.62716 23.8628C3.73901 24.0824 3.91749 24.2608 4.13701 24.3727C4.38657 24.4999 4.71327 24.4999 5.36667 24.4999H22.6333C23.2867 24.4999 23.6134 24.4999 23.863 24.3727C24.0825 24.2608 24.261 24.0824 24.3728 23.8628C24.5 23.6133 24.5 23.2866 24.5 22.6332V21.6999C24.5 21.0465 24.5 20.7198 24.3728 20.4702C24.261 20.2507 24.0825 20.0722 23.863 19.9604C23.6134 19.8332 23.2867 19.8332 22.6333 19.8332H5.36667C4.71327 19.8332 4.38657 19.8332 4.13701 19.9604C3.91749 20.0722 3.73901 20.2507 3.62716 20.4702C3.5 20.7198 3.5 21.0465 3.5 21.6999ZM13.5951 3.58985L4.96173 5.50836C4.44016 5.62427 4.17937 5.68222 3.98471 5.82246C3.81301 5.94616 3.67818 6.11424 3.59467 6.30869C3.5 6.52914 3.5 6.79629 3.5 7.33058L3.5 8.63319C3.5 9.28659 3.5 9.61328 3.62716 9.86285C3.73901 10.0824 3.91749 10.2608 4.13701 10.3727C4.38657 10.4999 4.71327 10.4999 5.36667 10.4999H22.6333C23.2867 10.4999 23.6134 10.4999 23.863 10.3727C24.0825 10.2608 24.261 10.0824 24.3728 9.86285C24.5 9.61329 24.5 9.28659 24.5 8.63319V7.33058C24.5 6.79629 24.5 6.52914 24.4053 6.30869C24.3218 6.11424 24.187 5.94617 24.0153 5.82247C23.8206 5.68222 23.5598 5.62427 23.0383 5.50837L14.4049 3.58985C14.2538 3.55627 14.1783 3.53948 14.1019 3.53278C14.0341 3.52683 13.9659 3.52683 13.8981 3.53278C13.8217 3.53948 13.7462 3.55627 13.5951 3.58985Z" stroke="#475467" stroke-width="2" stroke-linecap="round" stroke-linejoin="round"/>
</svg>
