<svg width="28" height="28" viewBox="0 0 28 28" fill="none" xmlns="http://www.w3.org/2000/svg">
<path d="M24.5 11.6668H3.5M18.6667 2.3335V7.00016M9.33333 2.3335V7.00016M10.5 18.6668L12.8333 21.0002L18.0833 15.7502M9.1 25.6668H18.9C20.8602 25.6668 21.8403 25.6668 22.589 25.2854C23.2475 24.9498 23.783 24.4144 24.1185 23.7558C24.5 23.0071 24.5 22.027 24.5 20.0668V10.2668C24.5 8.30665 24.5 7.32655 24.1185 6.57786C23.783 5.9193 23.2475 5.38386 22.589 5.04831C21.8403 4.66683 20.8602 4.66683 18.9 4.66683H9.1C7.13982 4.66683 6.15972 4.66683 5.41103 5.04831C4.75247 5.38386 4.21703 5.9193 3.88148 6.57786C3.5 7.32655 3.5 8.30665 3.5 10.2668V20.0668C3.5 22.027 3.5 23.0071 3.88148 23.7558C4.21703 24.4144 4.75247 24.9498 5.41103 25.2854C6.15972 25.6668 7.13982 25.6668 9.1 25.6668Z" stroke="#475467" stroke-width="2" stroke-linecap="round" stroke-linejoin="round"/>
</svg>
