<svg width="28" height="28" viewBox="0 0 28 28" fill="none" xmlns="http://www.w3.org/2000/svg">
<path d="M7.58333 23.3335H5.83333C4.54467 23.3335 3.5 22.2888 3.5 21.0002V4.66683C3.5 3.37816 4.54467 2.3335 5.83333 2.3335H22.1667C23.4553 2.3335 24.5 3.37817 24.5 4.66683V21.0002C24.5 22.2888 23.4553 23.3335 22.1667 23.3335H20.4167M14 22.1668C15.933 22.1668 17.5 20.5998 17.5 18.6668C17.5 16.7338 15.933 15.1668 14 15.1668C12.067 15.1668 10.5 16.7338 10.5 18.6668C10.5 20.5998 12.067 22.1668 14 22.1668ZM14 22.1668L14.025 22.1666L10.3001 25.8915L7.00028 22.5917L10.5229 19.069M14 22.1668L17.7249 25.8915L21.0248 22.5917L17.5021 19.069M10.5 7.00016H17.5M8.16667 11.0835H19.8333" stroke="#475467" stroke-width="2" stroke-linecap="round" stroke-linejoin="round"/>
</svg>
