<svg width="28" height="28" viewBox="0 0 28 28" fill="none" xmlns="http://www.w3.org/2000/svg">
<path d="M7.00016 23.4348H10.0455C10.4426 23.4348 10.8372 23.4821 11.2221 23.5766L14.4399 24.3585C15.1381 24.5286 15.8654 24.5452 16.5709 24.4081L20.1286 23.716C21.0685 23.5329 21.933 23.0829 22.6106 22.4238L25.1277 19.9752C25.8465 19.2771 25.8465 18.1443 25.1277 17.4451C24.4805 16.8155 23.4557 16.7446 22.7235 17.2785L19.7899 19.4188C19.3697 19.7259 18.8585 19.8913 18.3328 19.8913H15.4999L17.3031 19.8912C18.3194 19.8912 19.1427 19.0904 19.1427 18.1017V17.7438C19.1427 16.9229 18.5683 16.2071 17.7499 16.0087L14.9669 15.3319C14.5139 15.222 14.0501 15.1665 13.5838 15.1665C12.4582 15.1665 10.4207 16.0985 10.4207 16.0985L7.00016 17.5289M2.3335 17.0332L2.3335 23.7998C2.3335 24.4532 2.3335 24.7799 2.46066 25.0295C2.57251 25.249 2.75098 25.4275 2.97051 25.5393C3.22007 25.6665 3.54677 25.6665 4.20016 25.6665H5.1335C5.78689 25.6665 6.11359 25.6665 6.36315 25.5393C6.58267 25.4275 6.76115 25.249 6.873 25.0295C7.00016 24.7799 7.00016 24.4532 7.00016 23.7998V17.0332C7.00016 16.3798 7.00016 16.0531 6.873 15.8035C6.76115 15.584 6.58267 15.4055 6.36315 15.2937C6.11359 15.1665 5.78689 15.1665 5.1335 15.1665H4.20016C3.54677 15.1665 3.22007 15.1665 2.97051 15.2937C2.75098 15.4055 2.57251 15.584 2.46066 15.8035C2.3335 16.0531 2.3335 16.3798 2.3335 17.0332Z" stroke="#475467" stroke-width="2" stroke-linecap="round" stroke-linejoin="round"/>
<path d="M21.0799 1.48048C21.2144 1.2081 21.2816 1.07191 21.3729 1.02839C21.4523 0.990535 21.5445 0.990535 21.6239 1.02839C21.7152 1.07191 21.7824 1.2081 21.9168 1.48048L23.1924 4.06463C23.2321 4.14504 23.2519 4.18525 23.281 4.21647C23.3066 4.24411 23.3374 4.2665 23.3716 4.28241C23.4103 4.30038 23.4546 4.30686 23.5434 4.31983L26.3966 4.73688C26.6971 4.78079 26.8473 4.80275 26.9168 4.87614C26.9773 4.93999 27.0058 5.02772 26.9943 5.11492C26.981 5.21514 26.8723 5.32107 26.6547 5.53294L24.5909 7.54313C24.5265 7.60579 24.4944 7.63713 24.4736 7.67441C24.4552 7.70741 24.4435 7.74368 24.4389 7.78118C24.4338 7.82354 24.4414 7.8678 24.4565 7.95632L24.9435 10.7956C24.9949 11.0951 25.0206 11.2448 24.9723 11.3337C24.9303 11.411 24.8557 11.4652 24.7692 11.4813C24.6697 11.4997 24.5353 11.429 24.2664 11.2875L21.7156 9.94613C21.6361 9.90433 21.5964 9.88343 21.5545 9.87522C21.5174 9.86795 21.4793 9.86795 21.4423 9.87522C21.4004 9.88343 21.3606 9.90433 21.2812 9.94613L18.7304 11.2875C18.4615 11.429 18.327 11.4997 18.2276 11.4813C18.1411 11.4652 18.0665 11.411 18.0245 11.3337C17.9762 11.2448 18.0019 11.0951 18.0532 10.7956L18.5402 7.95632C18.5554 7.8678 18.563 7.82354 18.5579 7.78118C18.5533 7.74368 18.5415 7.70741 18.5231 7.67441C18.5024 7.63713 18.4702 7.60579 18.4059 7.54313L16.342 5.53294C16.1245 5.32107 16.0157 5.21514 16.0025 5.11492C15.991 5.02772 16.0194 4.93999 16.0799 4.87614C16.1495 4.80275 16.2997 4.78079 16.6001 4.73688L19.4534 4.31983C19.5421 4.30686 19.5865 4.30038 19.6251 4.28241C19.6593 4.2665 19.6901 4.24411 19.7158 4.21647C19.7448 4.18525 19.7647 4.14504 19.8044 4.06463L21.0799 1.48048Z" stroke="#475467" stroke-width="2" stroke-linecap="round" stroke-linejoin="round"/>
</svg>
