<svg width="28" height="28" viewBox="0 0 28 28" fill="none" xmlns="http://www.w3.org/2000/svg">
<path d="M24.5 14.0002L10.5 14.0002M24.5 7.00016L10.5 7.00016M24.5 21.0002L10.5 21.0002M5.83333 14.0002C5.83333 14.6445 5.311 15.1668 4.66667 15.1668C4.02233 15.1668 3.5 14.6445 3.5 14.0002C3.5 13.3558 4.02233 12.8335 4.66667 12.8335C5.311 12.8335 5.83333 13.3558 5.83333 14.0002ZM5.83333 7.00016C5.83333 7.64449 5.311 8.16683 4.66667 8.16683C4.02233 8.16683 3.5 7.64449 3.5 7.00016C3.5 6.35583 4.02233 5.8335 4.66667 5.8335C5.311 5.8335 5.83333 6.35583 5.83333 7.00016ZM5.83333 21.0002C5.83333 21.6445 5.311 22.1668 4.66667 22.1668C4.02233 22.1668 3.5 21.6445 3.5 21.0002C3.5 20.3558 4.02233 19.8335 4.66667 19.8335C5.311 19.8335 5.83333 20.3558 5.83333 21.0002Z" stroke="#475467" stroke-width="2" stroke-linecap="round" stroke-linejoin="round"/>
</svg>
