<svg width="20" height="20" viewBox="0 0 20 20" fill="none" xmlns="http://www.w3.org/2000/svg">
<g clip-path="url(#clip0_164_62037)">
<path d="M4.10841 4.10832L15.8917 15.8917M1.66675 7.10227V12.8977C1.66675 13.1015 1.66675 13.2034 1.68977 13.2993C1.71019 13.3844 1.74386 13.4657 1.78955 13.5402C1.84108 13.6243 1.91315 13.6964 2.05727 13.8405L6.15956 17.9428C6.30368 18.0869 6.37575 18.159 6.45984 18.2105C6.5344 18.2562 6.61569 18.2899 6.70072 18.3103C6.79663 18.3333 6.89854 18.3333 7.10237 18.3333H12.8978C13.1016 18.3333 13.2035 18.3333 13.2994 18.3103C13.3845 18.2899 13.4658 18.2562 13.5403 18.2105C13.6244 18.159 13.6965 18.0869 13.8406 17.9428L17.9429 13.8405C18.087 13.6964 18.1591 13.6243 18.2106 13.5402C18.2563 13.4657 18.29 13.3844 18.3104 13.2993C18.3334 13.2034 18.3334 13.1015 18.3334 12.8977V7.10227C18.3334 6.89845 18.3334 6.79654 18.3104 6.70063C18.29 6.6156 18.2563 6.53431 18.2106 6.45975C18.1591 6.37566 18.087 6.30359 17.9429 6.15947L13.8406 2.05718C13.6965 1.91305 13.6244 1.84099 13.5403 1.78946C13.4658 1.74377 13.3845 1.7101 13.2994 1.68968C13.2035 1.66666 13.1016 1.66666 12.8978 1.66666H7.10237C6.89854 1.66666 6.79663 1.66666 6.70072 1.68968C6.61569 1.7101 6.5344 1.74377 6.45984 1.78946C6.37575 1.84099 6.30368 1.91305 6.15956 2.05718L2.05727 6.15947C1.91315 6.30359 1.84108 6.37566 1.78955 6.45975C1.74386 6.53431 1.71019 6.6156 1.68977 6.70063C1.66675 6.79654 1.66675 6.89845 1.66675 7.10227Z" stroke="#FF0000" stroke-width="2" stroke-linecap="round" stroke-linejoin="round"/>
</g>
<defs>
<clipPath id="clip0_164_62037">
<rect width="20" height="20" fill="white"/>
</clipPath>
</defs>
</svg>
